<svg xmlns="http://www.w3.org/2000/svg" version="1.1" xmlns:xlink="http://www.w3.org/1999/xlink" xmlns:svgjs="http://svgjs.dev/svgjs" width="1000" height="275" viewBox="0 0 1000 275"><g transform="matrix(1,0,0,1,-0.6058648717550454,-0.196903343948577)"><svg viewBox="0 0 396 109" data-background-color="#ffa458" preserveAspectRatio="xMidYMid meet" height="275" width="1000" xmlns="http://www.w3.org/2000/svg" xmlns:xlink="http://www.w3.org/1999/xlink"><g id="tight-bounds" transform="matrix(1,0,0,1,0.23992255073540036,0.07804532541962317)"><svg viewBox="0 0 395.52 108.84375438911096" height="108.84375438911096" width="395.52"><g><svg viewBox="0 0 395.52 108.84375438911096" height="108.84375438911096" width="395.52"><g><svg viewBox="0 0 589.0579864632028 162.10376921406024" height="108.84375438911096" width="395.52"><g transform="matrix(1,0,0,1,0,47.76364559804299)"><svg viewBox="0 0 395.52 66.57647801797425" height="66.57647801797425" width="395.52"><g><svg viewBox="0 0 395.52 66.57647801797425" height="66.57647801797425" width="395.52"><g><svg viewBox="0 0 395.52 66.57647801797425" height="66.57647801797425" width="395.52"><g transform="matrix(1,0,0,1,0,0)"><svg width="395.52" viewBox="1.9500000476837158 -34.25 205.83999633789062 34.650001525878906" height="66.57647801797425" data-palette-color="#f75935"><path d="M24.2-9.8L24.2-9.8Q24.2-5.25 20.85-2.43 17.5 0.4 11.95 0.4L11.95 0.4Q6 0.4 2.25-1.7L2.25-1.7 2.25-9.45Q6.8-6.15 11.95-6.15L11.95-6.15Q13.7-6.15 14.85-7.08 16-8 16-9.5L16-9.5Q16-10 15.85-10.45 15.7-10.9 15.3-11.3 14.9-11.7 14.53-11.98 14.15-12.25 13.43-12.63 12.7-13 12.2-13.25 11.7-13.5 10.73-13.95 9.75-14.4 9.15-14.65L9.15-14.65Q5.9-16.15 3.93-18.35 1.95-20.55 1.95-24.2L1.95-24.2Q1.95-28.55 5.15-31.23 8.35-33.9 14-33.9L14-33.9Q19.05-33.9 22.7-32.2L22.7-32.2 22.7-25Q18.65-27.35 14.3-27.35L14.3-27.35Q12.35-27.35 11.33-26.55 10.3-25.75 10.3-24.5 10.3-23.25 11.55-22.28 12.8-21.3 15.3-20.2L15.3-20.2Q16.85-19.5 17.88-18.98 18.9-18.45 20.23-17.53 21.55-16.6 22.33-15.58 23.1-14.55 23.65-13.05 24.2-11.55 24.2-9.8ZM37.15-33.7L37.15 0 29.45 0 29.45-33.7 37.15-33.7ZM52.15-13.05L51.1 0 43.4 0 46.3-33.7 54.75-33.7 59.45-21.5Q60.65-18.45 61.5-15.9 62.35-13.35 62.6-12.3L62.6-12.3 62.85-11.3Q63.65-14.6 66.34-21.5L66.34-21.5 71.09-33.7 79.55-33.7 83.05 0 75.34 0 74.09-13.05 73.45-22.9Q72.15-19.15 69.84-13.05L69.84-13.05 65.09-0.35 60.55-0.35 55.85-13.05Q54.7-16.15 53.9-18.6 53.1-21.05 52.85-22L52.85-22 52.6-22.9Q52.6-19.35 52.15-13.05L52.15-13.05ZM100.39-10.9L100.39-10.9 96.49-10.9 96.49 0 88.79 0 88.79-33.7 100.39-33.7Q105.99-33.7 109.47-30.55 112.94-27.4 112.94-22.55L112.94-22.55Q112.94-17 109.32-13.95 105.69-10.9 100.39-10.9ZM99.49-27.55L99.49-27.55 96.49-27.55 96.49-17 99.04-17Q105.14-17 105.14-22.55L105.14-22.55Q105.14-27.55 99.49-27.55ZM137.89-9.8L137.89-9.8Q137.89-5.25 134.54-2.43 131.19 0.4 125.64 0.4L125.64 0.4Q119.69 0.4 115.94-1.7L115.94-1.7 115.94-9.45Q120.49-6.15 125.64-6.15L125.64-6.15Q127.39-6.15 128.54-7.08 129.69-8 129.69-9.5L129.69-9.5Q129.69-10 129.54-10.45 129.39-10.9 128.99-11.3 128.59-11.7 128.22-11.98 127.84-12.25 127.12-12.63 126.39-13 125.89-13.25 125.39-13.5 124.42-13.95 123.44-14.4 122.84-14.65L122.84-14.65Q119.59-16.15 117.62-18.35 115.64-20.55 115.64-24.2L115.64-24.2Q115.64-28.55 118.84-31.23 122.04-33.9 127.69-33.9L127.69-33.9Q132.74-33.9 136.39-32.2L136.39-32.2 136.39-25Q132.34-27.35 127.99-27.35L127.99-27.35Q126.04-27.35 125.02-26.55 123.99-25.75 123.99-24.5 123.99-23.25 125.24-22.28 126.49-21.3 128.99-20.2L128.99-20.2Q130.54-19.5 131.57-18.98 132.59-18.45 133.92-17.53 135.24-16.6 136.02-15.58 136.79-14.55 137.34-13.05 137.89-11.55 137.89-9.8ZM174.19-16.95L174.19-16.95Q174.19-9.2 169.71-4.42 165.24 0.35 157.79 0.35L157.79 0.35Q150.29 0.35 145.84-4.4 141.39-9.15 141.39-16.95L141.39-16.95Q141.39-24.7 145.86-29.48 150.34-34.25 157.79-34.25L157.79-34.25Q165.29-34.25 169.74-29.5 174.19-24.75 174.19-16.95ZM151.84-24.48Q149.64-21.7 149.64-16.95 149.64-12.2 151.84-9.43 154.04-6.65 157.79-6.65 161.54-6.65 163.74-9.43 165.94-12.2 165.94-16.95 165.94-21.7 163.74-24.48 161.54-27.25 157.79-27.25 154.04-27.25 151.84-24.48ZM187.14-13.95L187.14 0 179.44 0 179.44-33.7 187.89-33.7 195.74-19.75Q197.39-16.8 198.61-14.23 199.84-11.65 200.19-10.6L200.19-10.6 200.59-9.5Q200.09-13.2 200.09-19.75L200.09-19.75 200.09-33.7 207.79-33.7 207.79 0 199.34 0 191.29-13.95Q189.69-16.65 188.46-19.28 187.24-21.9 186.79-23.15L186.79-23.15 186.39-24.4Q187.14-19.9 187.14-13.95L187.14-13.95Z" opacity="1" transform="matrix(1,0,0,1,0,0)" fill="#f75935" class="undefined-text-0" data-fill-palette-color="primary" id="text-0"></path></svg></g></svg></g></svg></g></svg></g><g transform="matrix(1,0,0,1,426.9542172491426,0)"><svg viewBox="0 0 162.10376921406024 162.10376921406024" height="162.10376921406024" width="162.10376921406024"><g><svg></svg></g><g id="icon-0"><svg viewBox="0 0 162.10376921406024 162.10376921406024" height="162.10376921406024" width="162.10376921406024"><g><path d="M0 81.052c0-44.764 36.288-81.052 81.052-81.052 44.764 0 81.052 36.288 81.052 81.052 0 44.764-36.288 81.052-81.052 81.052-44.764 0-81.052-36.288-81.052-81.052zM81.052 156.1c41.448 0 75.048-33.6 75.048-75.048 0-41.448-33.6-75.048-75.048-75.048-41.448 0-75.048 33.6-75.048 75.048 0 41.448 33.6 75.048 75.048 75.048z" data-fill-palette-color="accent" fill="#ec5835" stroke="transparent"></path></g><g transform="matrix(1,0,0,1,34.1473081662682,39.7286278775586)"><svg viewBox="0 0 93.80915288152383 82.64651345894303" height="82.64651345894303" width="93.80915288152383"><g><svg xmlns="http://www.w3.org/2000/svg" xmlns:xlink="http://www.w3.org/1999/xlink" version="1.1" x="0" y="0" viewBox="6.300000190734863 11.5 87.39999389648438 77" style="enable-background:new 0 0 100 100;" xml:space="preserve" height="82.64651345894303" width="93.80915288152383" class="icon-s-0" data-fill-palette-color="accent" id="s-0"><path d="M72.3 12.3L72.3 12.3 72.3 12.3l-0.4-0.8H28.2L6.3 50l21.8 38.5h43.7L93.7 50 72.3 12.3zM33.3 25.3L9.9 47.7l18.6-32.8L33.3 25.3zM70.7 14.8l6.4 35.7L36.9 25.8 70.7 14.8zM35.5 27.3l41 25.2-41 23.3V27.3zM77 54.5l-7.2 30.8-32.6-8.1L77 54.5zM33.5 75L9.9 50.5l23.6-22.7V75zM33.2 77.6l-4.6 7.7L11.5 55.1 33.2 77.6zM35 78.6l31.4 7.9H30.2L35 78.6zM79.3 53.3l11.6-2.5L72.1 84 79.3 53.3zM90.7 48.9l-11.4 2.5-5.9-33.1L90.7 48.9zM35 24.3l-5-10.8h38.2L35 24.3z" fill="#ec5835" data-fill-palette-color="accent"></path></svg></g></svg></g></svg></g></svg></g></svg></g></svg></g><defs><mask id="f488012b-b540-473c-b29d-542ab2b33c3e"><rect width="640" height="400" fill="white"></rect><rect width="348.05760000000004" height="78.40855621369346" fill="black" x="145.97119999999998" y="160.79572189315326" id="transform-me" transform="matrix(1,0,0,1,-122.24000000000001,-145.57812280544454)"></rect></mask><mask id="6f7ed696-9570-4e4e-b7df-b5733f243e0d"><rect width="640" height="400" fill="white"></rect><rect width="348.05760000000004" height="78.40855621369346" fill="black" x="145.97119999999998" y="160.79572189315326" id="transform-me" transform="matrix(1,0,0,1,-122.24000000000001,-145.57812280544454)"></rect></mask></defs></svg><rect width="395.52" height="108.84375438911096" fill="none" stroke="none" visibility="hidden"></rect></g></svg></g></svg>